<svg fill="#007bff" xmlns="http://www.w3.org/2000/svg" viewBox="0 0 48 60" x="0px" y="0px"><title>23-knowledge</title><g data-name="23-knowledge"><path d="M34,45a1,1,0,0,1-1,1H3a1,1,0,0,1-1-1V10H7a3,3,0,0,0,3-3V2H33a1,1,0,0,1,1,1V21h2V3a3,3,0,0,0-3-3H9a1,1,0,0,0-.707.293l-8,8A1,1,0,0,0,0,9V45a3,3,0,0,0,3,3H33a3,3,0,0,0,3-3V29H34ZM7,8H3.414L8,3.414V7A1,1,0,0,1,7,8Z"/><path d="M32,9V7a3,3,0,0,0-3-3H27V6h2a1,1,0,0,1,1,1V9Z"/><rect x="23" y="4" width="2" height="2"/><path d="M47,19H40a1,1,0,0,0-.707.293L34.586,24H26.932c-.419-3.386-2.915-6-5.932-6a5.2,5.2,0,0,0-1.836.348C19.472,16.569,20.369,14,23,14V12a5.119,5.119,0,0,0-4.462,2.443A6.445,6.445,0,0,0,12,10a1,1,0,0,0-1,1,6.746,6.746,0,0,0,6.2,6.958c-.031.17-.059.337-.082.5A5.206,5.206,0,0,0,15,18c-3.309,0-6,3.141-6,7s2.691,7,6,7a5.3,5.3,0,0,0,3-.938A5.3,5.3,0,0,0,21,32c3.017,0,5.513-2.614,5.932-6h7.654l4.707,4.707A1,1,0,0,0,40,31h7a1,1,0,0,0,1-1V20A1,1,0,0,0,47,19ZM13.123,12.091a4.508,4.508,0,0,1,3.754,3.818A4.509,4.509,0,0,1,13.123,12.091ZM46,24H42.414l3-3H46Zm-5.586-3h2.172l-3,3H37.414ZM21,30a3.456,3.456,0,0,1-2.33-.95,1,1,0,0,0-1.34,0A3.456,3.456,0,0,1,15,30c-2.206,0-4-2.243-4-5s1.794-5,4-5a3.456,3.456,0,0,1,2.33.95,1,1,0,0,0,1.34,0A3.456,3.456,0,0,1,21,20c1.932,0,3.547,1.721,3.919,4H17v2h7.919C24.547,28.279,22.932,30,21,30Zm16.414-4h2.172l3,3H40.414Zm8,3-3-3H46v3Z"/><rect x="8" y="35" width="2" height="2"/><rect x="12" y="35" width="16" height="2"/><rect x="8" y="39" width="20" height="2"/></g></svg>